<?xml version="1.0" encoding="UTF-8"?>
<svg id="Layer_1" data-name="Layer 1" xmlns="http://www.w3.org/2000/svg" viewBox="0 0 763.37 478.06">
  <defs>
    <style>
      .cls-1 {
        fill: #fff;
      }

      .cls-2 {
        fill: none;
      }

      .cls-3 {
        fill: #2a81fb;
      }
    </style>
  </defs>
  <rect class="cls-2" x="580.83" y="247.4" width="9.71" height="0"/>
  <rect class="cls-2" x="464.8" y="2.61" width="0" height="7.08"/>
  <g>
    <path class="cls-3" d="M249.86,65.27h118.79c23.78,0,45.61,3.85,65.49,11.53,19.87,7.69,36.99,18.35,51.35,31.98,14.36,13.64,25.46,29.66,33.29,48.08,7.83,18.42,11.75,38.37,11.75,59.83v.87c0,21.47-3.92,41.49-11.75,60.05-7.83,18.57-18.93,34.67-33.29,48.3-14.36,13.64-31.48,24.37-51.35,32.2-19.87,7.83-41.7,11.75-65.49,11.75h-118.79V65.27ZM368.65,309.37c13.63,0,26.11-2.18,37.42-6.53,11.31-4.35,20.95-10.59,28.94-18.71,7.97-8.12,14.21-17.69,18.71-28.72,4.49-11.02,6.75-23.35,6.75-36.99v-.87c0-13.34-2.25-25.67-6.75-36.99-4.5-11.31-10.74-21.03-18.71-29.15-7.98-8.12-17.62-14.43-28.94-18.93-11.31-4.49-23.79-6.74-37.42-6.74h-51.78v183.62h51.78Z"/>
    <path class="cls-3" d="M306.01,87.25v258.55c90.43-8.46,160.23-63.09,160.23-129.28s-69.8-120.81-160.23-129.28Z"/>
    <path class="cls-1" d="M346.71,146.32l102.51,12.44.1,101.97c-.53,3.48-4.71,5.2-6.94,7.73l-.82-102.85-102.24-12.39,7.39-6.91Z"/>
    <polygon class="cls-1" points="383.96 317.42 381.31 216.91 281.69 204.22 327.04 163.66 426.96 176.29 427.83 181.08 428.73 277.37 383.96 317.42"/>
  </g>
</svg>