<?xml version="1.0" encoding="UTF-8"?>
<svg id="Layer_1" data-name="Layer 1" xmlns="http://www.w3.org/2000/svg" viewBox="0 0 764.2 504.45">
  <defs>
    <style>
      .cls-1 {
        fill: #4f4f4f;
      }

      .cls-2 {
        fill: #fff;
      }

      .cls-3 {
        fill: none;
      }

      .cls-4 {
        fill: #2a81fb;
      }
    </style>
  </defs>
  <rect class="cls-3" x="550.44" y="312.77" width="8.89" height="0"/>
  <rect class="cls-3" x="507.91" width="0" height="9.82"/>
  <g>
    <g>
      <path class="cls-4" d="M12,181.9h46.33c11.5,0,20.2,2.95,26.09,8.85,4.56,4.57,6.84,10.24,6.84,17v.29c0,2.86-.35,5.38-1.06,7.57-.71,2.19-1.66,4.17-2.84,5.93-1.18,1.76-2.55,3.31-4.11,4.64-1.56,1.33-3.24,2.48-5.04,3.43,5.78,2.19,10.33,5.17,13.65,8.93,3.32,3.76,4.98,8.97,4.98,15.64v.29c0,4.57-.88,8.57-2.64,12-1.76,3.43-4.28,6.28-7.56,8.57-3.28,2.29-7.22,4-11.83,5.14-4.61,1.14-9.72,1.71-15.33,1.71H12v-99.97ZM53.7,222.31c4.86,0,8.71-.83,11.57-2.5,2.86-1.67,4.28-4.36,4.28-8.07v-.29c0-3.33-1.24-5.88-3.71-7.64-2.48-1.76-6.05-2.64-10.71-2.64h-21.71v21.14h20.28ZM59.56,262.59c4.86,0,8.66-.88,11.43-2.64,2.76-1.76,4.14-4.5,4.14-8.21v-.29c0-3.33-1.29-5.97-3.86-7.93-2.57-1.95-6.71-2.93-12.43-2.93h-25.42v21.99h26.14Z"/>
      <path class="cls-4" d="M106.4,181.9h45.7c12.66,0,22.37,3.38,29.14,10.14,5.71,5.71,8.57,13.33,8.57,22.85v.29c0,8.09-1.98,14.69-5.93,19.78-3.95,5.09-9.12,8.83-15.5,11.21l24.42,35.71h-25.71l-21.42-31.99h-17.28v31.99h-21.99v-99.97ZM150.67,230.45c5.43,0,9.59-1.29,12.5-3.86,2.9-2.57,4.36-6,4.36-10.28v-.29c0-4.76-1.52-8.33-4.57-10.71-3.05-2.38-7.28-3.57-12.71-3.57h-21.85v28.71h22.28Z"/>
      <path class="cls-4" d="M235.22,181.18h20.28l42.85,100.69h-22.99l-9.14-22.42h-42.27l-9.14,22.42h-22.42l42.85-100.69ZM258.36,240.02l-13.28-32.42-13.28,32.42h26.56Z"/>
      <path class="cls-4" d="M305.06,181.9h20.28l46.85,61.56v-61.56h21.71v99.97h-18.71l-48.42-63.56v63.56h-21.71v-99.97Z"/>
      <path class="cls-1" d="M477.44,181.9h23.71l26.28,42.28,26.28-42.28h23.71v99.97h-21.71v-65.27l-28.14,42.7h-.57l-27.85-42.28v64.84h-21.71v-99.97Z"/>
      <path class="cls-1" d="M592.7,181.9h75.27v19.57h-53.56v20.28h47.13v19.57h-47.13v21h54.27v19.57h-75.98v-99.97Z"/>
      <path class="cls-1" d="M679.68,181.9h75.27v19.57h-53.56v20.28h47.13v19.57h-47.13v21h54.27v19.57h-75.98v-99.97Z"/>
    </g>
    <path class="cls-4" d="M376.11,181.9h38.99c7.81,0,14.97,1.26,21.49,3.78,6.52,2.52,12.14,6.02,16.85,10.5,4.71,4.48,8.35,9.74,10.93,15.78,2.57,6.05,3.86,12.59,3.86,19.64v.29c0,7.05-1.29,13.62-3.86,19.71-2.57,6.09-6.21,11.38-10.93,15.85-4.71,4.48-10.33,8-16.85,10.57-6.52,2.57-13.69,3.86-21.49,3.86h-38.99v-99.97ZM415.1,262.02c4.47,0,8.57-.71,12.28-2.14,3.71-1.43,6.88-3.47,9.5-6.14,2.62-2.66,4.66-5.81,6.14-9.43,1.48-3.62,2.21-7.66,2.21-12.14v-.29c0-4.38-.74-8.43-2.21-12.14-1.48-3.71-3.52-6.9-6.14-9.57-2.62-2.66-5.78-4.74-9.5-6.21-3.71-1.48-7.81-2.21-12.28-2.21h-17v60.27h17Z"/>
    <path class="cls-4" d="M394.54,189.11v84.86c29.68-2.78,52.59-20.71,52.59-42.43s-22.91-39.65-52.59-42.43Z"/>
    <path class="cls-2" d="M407.9,208.5l33.65,4.08.03,33.47c-.17,1.14-1.54,1.71-2.28,2.54l-.27-33.76-33.56-4.07,2.43-2.27Z"/>
    <polygon class="cls-2" points="420.13 264.66 419.26 231.67 386.56 227.5 401.44 214.19 434.24 218.34 434.53 219.91 434.82 251.51 420.13 264.66"/>
  </g>
</svg>